<?xml version="1.0" encoding="UTF-8" standalone="no"?>
<!DOCTYPE svg PUBLIC "-//W3C//DTD SVG 1.1//EN" "http://www.w3.org/Graphics/SVG/1.1/DTD/svg11.dtd">
<svg width="100%" height="100%" viewBox="0 0 171 171" version="1.1" xmlns="http://www.w3.org/2000/svg" xmlns:xlink="http://www.w3.org/1999/xlink" xml:space="preserve" xmlns:serif="http://www.serif.com/" style="fill-rule:evenodd;clip-rule:evenodd;stroke-linejoin:round;stroke-miterlimit:2;">
    <g transform="matrix(4.16667,0,0,4.16667,114.118,40.2025)">
        <path d="M0,29.875C0.122,28.973 0.776,27.365 3.802,26.832C4.282,26.747 4.738,26.704 5.158,26.704C7.193,26.704 8.063,27.718 8.416,28.391L0,29.875ZM-3.703,1.04L2.321,-0.022C3.026,1.126 5.309,5.07 6.02,9.102C6.055,9.302 6.087,9.5 6.115,9.694L3.962,9.218C3.636,9.146 3.313,9.352 3.241,9.678C3.169,10.003 3.375,10.326 3.7,10.398L6.256,10.963C6.396,12.837 6.234,14.945 5.09,16.517C4.417,17.438 3.396,18.141 2.251,18.282C1.311,18.398 0.339,18.129 -0.462,17.639C-1.231,17.167 -1.854,16.491 -2.34,15.737C-2.845,14.956 -3.211,14.09 -3.495,13.207C-3.805,12.238 -4.021,11.234 -4.159,10.227C-4.232,9.687 -4.281,9.145 -4.311,8.601L0.88,9.76C1.205,9.833 1.528,9.628 1.601,9.302C1.674,8.977 1.469,8.654 1.143,8.581L-4.344,7.355C-4.351,4.519 -3.894,1.979 -3.703,1.04M8.993,27.094C8.387,26.365 7.229,25.496 5.158,25.496C4.853,25.496 4.532,25.515 4.202,25.553L3.227,19.305C3.926,19.083 5.098,18.541 6.044,17.258C7.458,15.342 7.851,12.528 7.209,8.892C6.326,3.88 3.251,-0.823 3.12,-1.021C2.987,-1.221 2.749,-1.325 2.511,-1.283L-4.312,-0.08C-4.55,-0.038 -4.739,0.141 -4.795,0.375C-4.849,0.6 -6.063,5.79 -5.313,10.688C-4.723,14.551 -2.669,19.687 2.035,19.512L3.012,25.762C0.652,26.323 -0.381,27.53 -0.831,28.48C-1.371,29.62 -1.21,30.65 -1.202,30.693C-1.177,30.853 -1.088,30.995 -0.956,31.088C-0.853,31.161 -0.73,31.2 -0.606,31.2C-0.571,31.2 -0.536,31.197 -0.502,31.19L9.337,29.456C9.496,29.427 9.637,29.337 9.729,29.204C9.821,29.072 9.855,28.907 9.826,28.749C9.81,28.663 9.648,27.882 8.993,27.094C8.387,26.365 9.648,27.882 8.993,27.094C8.387,26.365 9.648,27.882 8.993,27.094C8.387,26.365 9.648,27.882 8.993,27.094" style="fill:rgb(35,31,32);fill-rule:nonzero;"/>
    </g>
    <g transform="matrix(4.16667,0,0,4.16667,56.0754,23.415)">
        <path d="M0,29.799L-8.415,28.315C-8.062,27.641 -7.192,26.629 -5.158,26.629C-4.738,26.629 -4.281,26.672 -3.801,26.756C-0.775,27.29 -0.122,28.897 0,29.799M-2.149,-0.021L3.874,1.041C4.053,1.916 4.463,4.185 4.512,6.79L0.669,7.941C0.35,8.036 0.168,8.373 0.263,8.693C0.359,9.013 0.696,9.195 1.015,9.098L4.505,8.054C4.504,8.097 4.502,8.14 4.501,8.184C4.468,9.087 4.385,9.989 4.229,10.88C3.046,17.585 -0.293,18.309 -1.674,18.309C-3.137,18.309 -4.457,17.339 -5.188,16.105C-5.802,15.061 -6.232,13.517 -6.102,11.237L-1.723,9.923C-1.403,9.827 -1.222,9.49 -1.318,9.171C-1.414,8.851 -1.751,8.67 -2.07,8.765L-5.978,9.938C-5.941,9.665 -5.898,9.387 -5.848,9.103C-5.138,5.076 -2.854,1.128 -2.149,-0.021M4.967,0.376C4.911,0.142 4.721,-0.037 4.484,-0.079L-2.34,-1.282C-2.577,-1.324 -2.816,-1.221 -2.949,-1.02C-3.08,-0.822 -6.154,3.882 -7.038,8.893C-7.679,12.528 -7.287,15.343 -5.873,17.259C-4.932,18.533 -3.769,19.077 -3.067,19.301L-4.187,25.479C-4.523,25.44 -4.848,25.42 -5.158,25.42C-7.229,25.42 -8.386,26.289 -8.992,27.018C-9.648,27.806 -9.809,28.587 -9.825,28.673C-9.855,28.832 -9.82,28.996 -9.728,29.129C-9.636,29.261 -9.496,29.352 -9.336,29.38L0.502,31.114C0.537,31.121 0.572,31.123 0.607,31.123C0.731,31.123 0.854,31.085 0.957,31.012C1.088,30.919 1.177,30.777 1.203,30.618C1.21,30.574 1.372,29.544 0.832,28.404C0.382,27.456 -0.647,26.252 -2.997,25.69L-1.877,19.513C-0.598,19.564 0.675,19.142 1.705,18.387C3.065,17.388 3.963,15.887 4.555,14.332C5.005,13.146 5.304,11.896 5.492,10.642C6.228,5.758 5.02,0.599 4.967,0.376C4.911,0.142 5.02,0.599 4.967,0.376C4.911,0.142 5.02,0.599 4.967,0.376" style="fill:rgb(35,31,32);fill-rule:nonzero;"/>
    </g>
    <g transform="matrix(4.16667,0,0,4.16667,156.598,114.031)">
        <path d="M0,2.225C-0.302,1.806 -0.693,1.415 -1.112,1.112C-0.693,0.81 -0.302,0.419 0,0C0.303,0.419 0.694,0.81 1.113,1.112C0.694,1.415 0.303,1.806 0,2.225M2.659,0.508C1.968,0.508 0.604,-0.855 0.604,-1.546C0.604,-1.879 0.334,-2.15 0,-2.15C-0.333,-2.15 -0.604,-1.879 -0.604,-1.546C-0.604,-0.855 -1.967,0.508 -2.658,0.508C-2.992,0.508 -3.263,0.779 -3.263,1.112C-3.263,1.447 -2.992,1.717 -2.658,1.717C-1.967,1.717 -0.604,3.08 -0.604,3.771C-0.604,4.105 -0.333,4.375 0,4.375C0.334,4.375 0.604,4.105 0.604,3.771C0.604,3.08 1.968,1.717 2.659,1.717C2.993,1.717 3.264,1.447 3.264,1.112C3.263,0.779 2.993,0.508 2.659,0.508" style="fill:rgb(35,31,32);fill-rule:nonzero;"/>
    </g>
    <g transform="matrix(4.16667,0,0,4.16667,8.95833,98.5258)">
        <path d="M0,0C0.419,-0.303 0.811,-0.694 1.113,-1.113C1.416,-0.694 1.807,-0.303 2.226,0C1.807,0.302 1.416,0.693 1.113,1.113C0.811,0.693 0.419,0.302 0,0M1.717,2.658C1.717,1.967 3.081,0.604 3.771,0.604C4.105,0.604 4.376,0.333 4.376,0C4.376,-0.334 4.105,-0.604 3.771,-0.604C3.081,-0.604 1.717,-1.968 1.717,-2.659C1.717,-2.993 1.446,-3.263 1.113,-3.263C0.779,-3.263 0.509,-2.993 0.509,-2.659C0.509,-1.968 -0.854,-0.604 -1.545,-0.604C-1.88,-0.604 -2.15,-0.334 -2.15,0C-2.15,0.333 -1.88,0.604 -1.545,0.604C-0.854,0.604 0.509,1.967 0.509,2.658C0.509,2.992 0.779,3.263 1.113,3.263C1.446,3.263 1.717,2.992 1.717,2.658" style="fill:rgb(35,31,32);fill-rule:nonzero;"/>
    </g>
    <g transform="matrix(4.16667,0,0,4.16667,86.6946,20.2417)">
        <path d="M0,-2.707C0,-3.227 0.423,-3.65 0.943,-3.65C1.434,-3.65 1.841,-3.273 1.882,-2.787C1.881,-2.761 1.88,-2.734 1.88,-2.707C1.88,-2.374 2.156,-2.103 2.49,-2.103C2.823,-2.103 3.094,-2.374 3.094,-2.707C3.094,-2.734 3.094,-2.761 3.092,-2.787C3.133,-3.273 3.541,-3.65 4.032,-3.65C4.511,-3.65 4.914,-3.291 4.968,-2.818C4.972,-2.781 4.974,-2.744 4.974,-2.707C4.974,-2.078 4.311,-1.051 3.153,0.112C2.902,0.365 2.668,0.582 2.485,0.747C1.396,-0.228 0,-1.783 0,-2.707M2.485,2.151L2.491,2.151C2.664,2.151 2.819,2.079 2.929,1.963C3.086,1.831 3.515,1.462 4.009,0.965C5.452,-0.484 6.183,-1.72 6.183,-2.707C6.183,-2.79 6.178,-2.873 6.168,-2.957C6.042,-4.04 5.125,-4.858 4.032,-4.858C3.428,-4.858 2.879,-4.608 2.487,-4.205C2.095,-4.608 1.547,-4.858 0.943,-4.858C-0.243,-4.858 -1.208,-3.894 -1.208,-2.707C-1.208,-0.858 1.406,1.432 2.055,1.972C2.166,2.084 2.32,2.151 2.485,2.151" style="fill:rgb(35,31,32);fill-rule:nonzero;"/>
    </g>
</svg>
