<?xml version="1.0" encoding="UTF-8" standalone="no"?>
<!DOCTYPE svg PUBLIC "-//W3C//DTD SVG 1.1//EN" "http://www.w3.org/Graphics/SVG/1.1/DTD/svg11.dtd">
<svg width="100%" height="100%" viewBox="0 0 136 156" version="1.1" xmlns="http://www.w3.org/2000/svg" xmlns:xlink="http://www.w3.org/1999/xlink" xml:space="preserve" xmlns:serif="http://www.serif.com/" style="fill-rule:evenodd;clip-rule:evenodd;stroke-linejoin:round;stroke-miterlimit:2;">
    <g transform="matrix(4.16667,0,0,4.16667,132.383,57.4375)">
        <path d="M0,9.757C0,10.486 -0.594,11.08 -1.324,11.08L-29.642,11.08C-30.372,11.08 -30.965,10.486 -30.965,9.757L-30.965,8.951L0,8.951L0,9.757ZM-9.027,13.008C-9.253,13.906 -10.057,14.533 -10.982,14.533C-12.02,14.533 -12.864,15.378 -12.864,16.416L-12.864,19.34C-12.864,20.324 -12.064,21.124 -11.08,21.124L-10.821,21.124C-10.091,21.124 -9.497,21.718 -9.497,22.491L-9.497,22.736L-21.224,22.736L-21.468,22.693L-21.468,22.448C-21.468,21.718 -20.875,21.124 -20.145,21.124L-19.887,21.124C-18.902,21.124 -18.102,20.324 -18.102,19.34L-18.102,16.416C-18.102,15.378 -18.947,14.533 -19.985,14.533C-20.91,14.533 -21.714,13.906 -21.939,13.008L-22.219,11.887L-8.748,11.887L-9.027,13.008ZM-26.994,5.8L-5.08,5.8L-5.08,4.993L-26.994,4.993L-26.994,1.641C-26.994,0.911 -26.4,0.318 -25.67,0.318L-20.744,0.318C-20.522,0.318 -20.341,0.137 -20.341,-0.086C-20.341,-0.307 -20.522,-0.489 -20.744,-0.489L-24.06,-0.489L-24.06,-4.375L-23.357,-3.675C-23.053,-3.371 -22.649,-3.203 -22.218,-3.203C-21.788,-3.203 -21.382,-3.371 -21.078,-3.675L-20.542,-4.211C-20.39,-4.363 -20.188,-4.446 -19.973,-4.446C-19.76,-4.446 -19.558,-4.363 -19.404,-4.211L-18.868,-3.675C-18.563,-3.371 -18.159,-3.203 -17.729,-3.203C-17.298,-3.203 -16.893,-3.371 -16.588,-3.675L-16.052,-4.211C-15.901,-4.363 -15.699,-4.446 -15.483,-4.446C-15.268,-4.446 -15.066,-4.363 -14.914,-4.211L-14.378,-3.675C-14.074,-3.371 -13.67,-3.203 -13.239,-3.203C-12.809,-3.203 -12.403,-3.371 -12.099,-3.675L-11.563,-4.211C-11.411,-4.363 -11.209,-4.446 -10.993,-4.446C-10.779,-4.446 -10.576,-4.363 -10.425,-4.211L-9.889,-3.675C-9.585,-3.371 -9.181,-3.203 -8.75,-3.203C-8.319,-3.203 -7.914,-3.371 -7.609,-3.675L-6.908,-4.377L-6.908,-0.489L-17.75,-0.489C-17.972,-0.489 -18.153,-0.307 -18.153,-0.086C-18.153,0.137 -17.972,0.318 -17.75,0.318L-5.295,0.318C-4.565,0.318 -3.972,0.911 -3.972,1.641L-3.972,4.993L-5.411,4.993L-5.411,5.8L-3.972,5.8L-3.972,8.145L-26.994,8.145L-26.994,5.8ZM-24.004,-5.642C-23.837,-6.201 -23.316,-6.59 -22.735,-6.59L-13.611,-6.59C-13.389,-6.59 -13.208,-6.77 -13.208,-6.992C-13.208,-7.215 -13.389,-7.395 -13.611,-7.395L-21.729,-7.395L-21.729,-9.265L-9.238,-9.265L-9.238,-7.395L-10.615,-7.395C-10.837,-7.395 -11.019,-7.215 -11.019,-6.992C-11.019,-6.77 -10.837,-6.59 -10.615,-6.59L-8.23,-6.59C-7.649,-6.59 -7.128,-6.201 -6.962,-5.642L-6.921,-5.504L-8.179,-4.246C-8.331,-4.093 -8.533,-4.01 -8.749,-4.01C-8.965,-4.01 -9.167,-4.093 -9.318,-4.246L-9.854,-4.78C-10.159,-5.085 -10.563,-5.253 -10.993,-5.253C-11.424,-5.253 -11.828,-5.085 -12.134,-4.78L-12.668,-4.247C-12.82,-4.094 -13.022,-4.01 -13.239,-4.01C-13.455,-4.01 -13.657,-4.094 -13.808,-4.246L-14.344,-4.78C-14.649,-5.085 -15.053,-5.253 -15.483,-5.253C-15.914,-5.253 -16.318,-5.085 -16.623,-4.78L-17.158,-4.246C-17.31,-4.093 -17.512,-4.01 -17.728,-4.01C-17.943,-4.01 -18.146,-4.093 -18.297,-4.246L-18.832,-4.78C-19.138,-5.085 -19.542,-5.253 -19.972,-5.253C-20.403,-5.253 -20.807,-5.085 -21.112,-4.78L-21.647,-4.246C-21.799,-4.093 -22.001,-4.01 -22.217,-4.01C-22.433,-4.01 -22.635,-4.093 -22.787,-4.246L-24.045,-5.504L-24.004,-5.642ZM-21.729,-11.654C-21.729,-12.385 -21.135,-12.978 -20.404,-12.978L-10.562,-12.978C-9.832,-12.978 -9.238,-12.385 -9.238,-11.654L-9.238,-10.072L-21.729,-10.072L-21.729,-11.654ZM0.403,8.145L-3.165,8.145L-3.165,1.641C-3.165,0.467 -4.121,-0.489 -5.295,-0.489L-6.101,-0.489L-6.103,-5.306L-6.108,-5.424C-6.188,-6.51 -7.103,-7.375 -8.191,-7.394L-8.432,-7.399L-8.432,-11.654C-8.432,-12.829 -9.388,-13.785 -10.562,-13.785L-20.404,-13.785C-21.578,-13.785 -22.534,-12.829 -22.534,-11.654L-22.534,-7.399L-22.774,-7.394C-23.863,-7.375 -24.779,-6.51 -24.859,-5.424L-24.864,-5.273L-24.865,-0.489L-25.67,-0.489C-26.844,-0.489 -27.8,0.467 -27.8,1.641L-27.8,8.145L-31.369,8.145C-31.591,8.145 -31.772,8.325 -31.772,8.548L-31.772,9.757C-31.772,10.931 -30.816,11.887 -29.642,11.887L-23.05,11.887L-22.721,13.203C-22.407,14.461 -21.282,15.34 -19.985,15.34C-19.391,15.34 -18.908,15.822 -18.908,16.416L-18.908,19.34C-18.908,19.879 -19.347,20.318 -19.887,20.318L-20.145,20.318C-21.319,20.318 -22.275,21.274 -22.275,22.448L-22.275,23.139C-22.275,23.361 -22.094,23.542 -21.872,23.542L-9.094,23.542C-8.872,23.542 -8.69,23.361 -8.69,23.139L-8.69,22.448C-8.69,21.274 -9.646,20.318 -10.821,20.318L-11.08,20.318C-11.619,20.318 -12.058,19.879 -12.058,19.34L-12.058,16.416C-12.058,15.822 -11.576,15.34 -10.982,15.34C-9.685,15.34 -8.561,14.461 -8.245,13.203L-7.916,11.887L-1.324,11.887C-0.149,11.887 0.807,10.931 0.807,9.757L0.807,8.548C0.807,8.325 0.625,8.145 0.403,8.145" style="fill:rgb(35,31,32);fill-rule:nonzero;"/>
    </g>
</svg>
