<?xml version="1.0" encoding="UTF-8" standalone="no"?>
<!DOCTYPE svg PUBLIC "-//W3C//DTD SVG 1.1//EN" "http://www.w3.org/Graphics/SVG/1.1/DTD/svg11.dtd">
<svg width="100%" height="100%" viewBox="0 0 367 369" version="1.1" xmlns="http://www.w3.org/2000/svg" xmlns:xlink="http://www.w3.org/1999/xlink" xml:space="preserve" xmlns:serif="http://www.serif.com/" style="fill-rule:evenodd;clip-rule:evenodd;stroke-linecap:round;stroke-linejoin:round;stroke-miterlimit:10;">
    <g transform="matrix(4.16667,0,0,4.16667,12.2943,221.526)">
        <path d="M0,4.257C-0.141,4.257 -0.235,4.335 -0.281,4.489C-0.327,4.642 -0.298,4.865 -0.194,5.157C-0.09,5.45 0.106,5.8 0.395,6.21C0.684,6.62 1.105,7.088 1.658,7.612C2.107,7.986 2.554,8.246 2.998,8.389C3.441,8.534 3.851,8.577 4.227,8.519C4.602,8.461 4.919,8.305 5.178,8.049C5.436,7.795 5.603,7.445 5.676,7.002C5.53,6.842 5.222,6.593 4.753,6.256C4.283,5.918 3.76,5.586 3.184,5.258C2.607,4.931 2.026,4.66 1.442,4.447C0.857,4.232 0.377,4.169 0,4.257M18.299,1.473C17.975,1.748 17.764,1.923 17.667,2.002C17.568,2.08 17.394,2.175 17.145,2.288C17.267,2.011 17.369,1.771 17.45,1.566C17.532,1.361 17.6,1.16 17.654,0.964C17.708,0.768 17.744,0.556 17.759,0.331C17.775,0.105 17.771,-0.156 17.746,-0.45C17.625,-1.22 17.396,-1.914 17.058,-2.531C16.719,-3.147 16.322,-3.637 15.867,-3.998C15.41,-4.361 14.919,-4.566 14.392,-4.616C13.865,-4.665 13.349,-4.517 12.845,-4.171C12.291,-3.79 11.791,-3.305 11.348,-2.715C10.903,-2.125 10.491,-1.478 10.109,-0.775C9.728,-0.072 9.39,0.659 9.095,1.417C8.8,2.176 8.525,2.898 8.27,3.586C8.015,4.273 7.789,4.905 7.594,5.484C7.398,6.064 7.216,6.518 7.05,6.848C7.513,7.339 7.918,7.805 8.267,8.249C8.616,8.691 8.969,9.153 9.329,9.632L9.377,9.8C9.379,9.88 9.327,9.904 9.218,9.876C9.021,9.752 8.805,9.597 8.572,9.412C8.337,9.229 8.098,9.041 7.852,8.85C7.605,8.659 7.366,8.472 7.132,8.288C6.898,8.103 6.689,7.937 6.505,7.789C6.122,8.482 5.735,8.976 5.347,9.269C4.958,9.561 4.533,9.693 4.073,9.664C3.612,9.635 3.096,9.452 2.527,9.113C1.957,8.775 1.313,8.305 0.599,7.706C0.125,7.319 -0.312,6.882 -0.714,6.393C-1.116,5.906 -1.408,5.432 -1.591,4.971C-1.773,4.51 -1.794,4.104 -1.654,3.753C-1.514,3.4 -1.124,3.183 -0.484,3.099C0.605,3.108 1.691,3.389 2.776,3.942C3.859,4.496 4.988,5.167 6.16,5.956C6.216,5.941 6.322,5.714 6.479,5.278C6.634,4.84 6.835,4.279 7.081,3.595C7.327,2.911 7.622,2.153 7.966,1.319C8.31,0.486 8.689,-0.327 9.105,-1.12C9.521,-1.914 9.984,-2.645 10.496,-3.315C11.007,-3.986 11.555,-4.494 12.139,-4.843C12.874,-5.296 13.556,-5.547 14.185,-5.597C14.814,-5.647 15.367,-5.595 15.845,-5.44C16.321,-5.286 16.718,-5.078 17.034,-4.817C17.351,-4.556 17.575,-4.334 17.708,-4.151C17.961,-3.761 18.197,-3.361 18.416,-2.951C18.634,-2.541 18.789,-2.108 18.879,-1.651C18.97,-1.194 18.975,-0.708 18.892,-0.191C18.809,0.325 18.611,0.88 18.299,1.473" style="fill:white;fill-rule:nonzero;"/>
    </g>
    <g transform="matrix(4.16667,0,0,4.16667,81.5572,290.828)">
        <path d="M0,-7.312C0.137,-7.171 0.103,-7.01 -0.104,-6.831C-0.311,-6.652 -0.502,-6.575 -0.678,-6.599C-0.94,-6.683 -1.14,-6.715 -1.276,-6.696C-1.414,-6.676 -1.556,-6.746 -1.703,-6.903C-1.75,-7.011 -1.801,-7.1 -1.856,-7.167C-1.912,-7.234 -1.817,-7.382 -1.572,-7.609C-1.352,-7.66 -1.108,-7.673 -0.84,-7.65C-0.572,-7.628 -0.292,-7.515 0,-7.312M-3.121,-5.195C-3.848,-4.611 -4.668,-4.001 -5.581,-3.366C-6.495,-2.73 -7.437,-2.042 -8.407,-1.301C-8.885,-0.9 -9.249,-0.573 -9.5,-0.319C-9.75,-0.066 -9.995,0.161 -10.234,0.361C-10.45,0.133 -10.577,-0.073 -10.615,-0.256C-10.652,-0.438 -10.672,-0.621 -10.675,-0.804C-10.437,-1.004 -10.029,-1.318 -9.454,-1.746C-8.879,-2.175 -8.252,-2.638 -7.571,-3.134C-6.891,-3.631 -6.231,-4.114 -5.591,-4.584C-4.951,-5.055 -4.447,-5.432 -4.078,-5.716C-4.004,-5.672 -3.921,-5.651 -3.83,-5.652C-3.739,-5.653 -3.653,-5.645 -3.572,-5.628C-3.493,-5.611 -3.41,-5.573 -3.325,-5.512C-3.24,-5.452 -3.172,-5.347 -3.121,-5.195" style="fill:white;fill-rule:nonzero;"/>
    </g>
    <g transform="matrix(4.16667,0,0,4.16667,77.3272,331.6)">
        <path d="M0,-12.671C0.119,-12.798 0.223,-12.84 0.314,-12.796C0.404,-12.751 0.475,-12.678 0.527,-12.577C0.578,-12.477 0.614,-12.359 0.632,-12.222C0.65,-12.087 0.661,-11.991 0.664,-11.937C0.349,-11.542 -0.132,-11.052 -0.781,-10.468C-1.43,-9.883 -2.196,-9.116 -3.078,-8.168C-2.811,-8.342 -2.476,-8.532 -2.072,-8.738C-1.67,-8.944 -1.246,-9.138 -0.801,-9.317C-0.356,-9.498 0.083,-9.644 0.517,-9.755C0.951,-9.867 1.328,-9.926 1.649,-9.931C1.97,-9.936 2.209,-9.866 2.365,-9.721C2.521,-9.576 2.55,-9.323 2.454,-8.964C2.417,-8.867 2.307,-8.699 2.124,-8.461C1.941,-8.221 1.708,-7.942 1.426,-7.624C1.143,-7.306 0.832,-6.949 0.49,-6.554C0.148,-6.159 -0.192,-5.749 -0.532,-5.326C-0.115,-5.519 0.349,-5.728 0.861,-5.952C1.372,-6.176 1.862,-6.354 2.329,-6.487C2.796,-6.621 3.215,-6.674 3.585,-6.646C3.956,-6.618 4.215,-6.443 4.364,-6.12C4.437,-5.973 4.393,-5.769 4.232,-5.51C4.07,-5.252 3.866,-4.961 3.617,-4.637C3.369,-4.313 3.108,-3.968 2.834,-3.602C2.561,-3.237 2.348,-2.873 2.197,-2.512C2.045,-2.151 1.987,-1.803 2.02,-1.47C2.052,-1.136 2.244,-0.845 2.595,-0.598C2.765,-0.441 2.886,-0.321 2.957,-0.242C3.028,-0.163 3.075,-0.099 3.097,-0.052C3.119,-0.005 3.114,0.029 3.081,0.051C3.046,0.073 3.004,0.112 2.952,0.169C2.177,-0.049 1.667,-0.359 1.419,-0.76C1.172,-1.162 1.094,-1.603 1.187,-2.086C1.278,-2.568 1.486,-3.061 1.81,-3.565C2.133,-4.069 2.479,-4.547 2.845,-4.998C2.988,-5.209 3,-5.343 2.882,-5.4C2.763,-5.457 2.551,-5.456 2.246,-5.397C1.94,-5.338 1.581,-5.243 1.168,-5.112C0.756,-4.981 0.334,-4.824 -0.097,-4.644C-0.528,-4.465 -0.932,-4.278 -1.307,-4.088C-1.684,-3.896 -1.986,-3.734 -2.213,-3.603C-2.403,-3.542 -2.549,-3.612 -2.652,-3.813C-2.755,-4.014 -2.755,-4.213 -2.653,-4.408C-2.5,-4.687 -2.271,-4.996 -1.969,-5.336C-1.667,-5.675 -1.354,-6.011 -1.031,-6.344C-0.708,-6.678 -0.391,-6.997 -0.081,-7.302C0.229,-7.608 0.482,-7.881 0.679,-8.12C0.875,-8.36 0.993,-8.542 1.029,-8.667C1.065,-8.791 0.968,-8.841 0.736,-8.819C0.152,-8.676 -0.458,-8.465 -1.098,-8.189C-1.738,-7.913 -2.37,-7.595 -2.992,-7.237C-3.616,-6.88 -4.213,-6.499 -4.787,-6.094C-5.36,-5.691 -5.853,-5.296 -6.262,-4.913C-6.555,-5.08 -6.696,-5.27 -6.683,-5.482C-6.671,-5.694 -6.64,-5.897 -6.592,-6.091C-6.394,-6.248 -6.036,-6.582 -5.521,-7.093C-5.006,-7.605 -4.422,-8.191 -3.769,-8.85C-3.116,-9.51 -2.45,-10.185 -1.771,-10.872C-1.091,-11.561 -0.501,-12.161 0,-12.671" style="fill:white;fill-rule:nonzero;"/>
    </g>
    <g transform="matrix(4.16667,0,0,4.16667,103.225,323.125)">
        <path d="M0,4.455C0.018,4.55 0.05,4.658 0.098,4.779C0.146,4.9 0.224,5.014 0.332,5.122C0.44,5.231 0.572,5.302 0.727,5.336C0.883,5.371 1.078,5.349 1.311,5.271C1.942,5.046 2.475,4.755 2.912,4.4C3.348,4.045 3.698,3.679 3.961,3.304C4.224,2.927 4.395,2.563 4.473,2.214C4.549,1.863 4.536,1.576 4.433,1.351C4.337,1.195 4.256,1.064 4.192,0.956C4.127,0.848 4.034,0.731 3.913,0.605C3.792,0.481 3.633,0.331 3.439,0.159C3.244,-0.013 2.991,-0.242 2.68,-0.528C2.23,-0.06 1.833,0.433 1.488,0.952C1.143,1.471 0.86,1.962 0.64,2.424C0.42,2.888 0.256,3.303 0.149,3.67C0.041,4.038 -0.009,4.3 0,4.455M2.146,-2.187C2.466,-2.006 2.806,-1.778 3.165,-1.501C3.524,-1.225 3.861,-0.927 4.177,-0.607C4.493,-0.287 4.771,0.035 5.008,0.358C5.247,0.682 5.418,1 5.522,1.311C5.634,1.605 5.611,1.955 5.451,2.361C5.292,2.768 5.052,3.183 4.733,3.607C4.413,4.031 4.04,4.444 3.612,4.847C3.185,5.249 2.759,5.594 2.336,5.879C1.913,6.164 1.506,6.372 1.118,6.503C0.729,6.633 0.422,6.642 0.197,6.53C-0.184,6.34 -0.458,6.089 -0.627,5.779C-0.796,5.467 -0.894,5.143 -0.92,4.807C-0.947,4.469 -0.927,4.138 -0.863,3.814C-0.798,3.489 -0.723,3.219 -0.637,3.003C-0.231,2.06 0.166,1.243 0.554,0.551C0.943,-0.141 1.296,-0.699 1.616,-1.124C1.607,-1.235 1.594,-1.339 1.576,-1.435C1.559,-1.53 1.54,-1.62 1.518,-1.707C1.496,-1.793 1.464,-1.879 1.42,-1.966C1.507,-1.965 1.602,-1.984 1.706,-2.018C1.896,-2.053 2.043,-2.109 2.146,-2.187" style="fill:white;fill-rule:nonzero;"/>
    </g>
    <g transform="matrix(4.16667,0,0,4.16667,161.763,347.19)">
        <path d="M0,2.049C0.261,1.934 0.569,1.768 0.925,1.553C1.281,1.338 1.62,1.084 1.944,0.788C2.267,0.493 2.554,0.161 2.806,-0.208C3.057,-0.576 3.208,-0.971 3.261,-1.393C3.341,-1.679 3.346,-1.882 3.278,-2.004C3.244,-2.064 3.208,-2.096 3.169,-2.098C2.853,-2.279 2.522,-2.255 2.175,-2.03C1.828,-1.805 1.502,-1.471 1.196,-1.029C0.891,-0.587 0.625,-0.089 0.398,0.466C0.171,1.02 0.039,1.548 0,2.049M1.666,-2.971C1.725,-2.986 1.893,-3.026 2.169,-3.092C2.446,-3.158 2.668,-3.155 2.838,-3.084C3.398,-3.06 3.816,-2.883 4.091,-2.552C4.366,-2.22 4.344,-1.62 4.025,-0.754C3.584,0.201 3.034,0.984 2.376,1.592C1.719,2.201 0.953,2.772 0.078,3.306C0.232,3.822 0.5,4.124 0.881,4.211C1.262,4.298 1.671,4.267 2.11,4.116C2.547,3.966 2.981,3.752 3.41,3.474C3.838,3.197 4.187,2.953 4.455,2.74C4.887,2.424 5.232,2.156 5.492,1.933C5.751,1.711 6.029,1.437 6.326,1.111C6.387,1.077 6.419,1.084 6.425,1.132C6.431,1.181 6.421,1.254 6.395,1.348C6.368,1.444 6.328,1.576 6.276,1.746C6.209,1.878 6.142,1.993 6.075,2.095C6.01,2.196 5.917,2.306 5.803,2.423C5.688,2.54 5.537,2.678 5.349,2.838C5.163,2.998 4.932,3.214 4.66,3.484C4.35,3.732 4.05,3.974 3.76,4.215C3.47,4.454 3.168,4.658 2.855,4.828C2.541,4.998 2.203,5.109 1.841,5.157C1.478,5.207 1.069,5.175 0.612,5.063C0.236,4.899 -0.061,4.73 -0.28,4.558C-0.5,4.386 -0.666,4.214 -0.778,4.039C-0.891,3.867 -0.971,3.71 -1.019,3.571C-1.066,3.431 -1.096,3.313 -1.107,3.215C-1.175,2.822 -1.173,2.299 -1.103,1.645C-1.034,0.99 -0.776,0.157 -0.33,-0.855C-0.037,-1.375 0.268,-1.813 0.586,-2.166C0.904,-2.52 1.264,-2.788 1.666,-2.971" style="fill:white;fill-rule:nonzero;"/>
    </g>
    <g transform="matrix(4.16667,0,0,4.16667,253.615,290.805)">
        <path d="M0,16.176C0.021,16.315 0.112,16.395 0.272,16.418C0.432,16.439 0.647,16.375 0.92,16.228C1.191,16.079 1.507,15.83 1.868,15.482C2.228,15.133 2.624,14.644 3.057,14.016C3.355,13.514 3.543,13.033 3.616,12.572C3.689,12.112 3.668,11.7 3.553,11.338C3.438,10.976 3.233,10.687 2.941,10.471C2.649,10.256 2.278,10.146 1.828,10.142C1.694,10.311 1.496,10.654 1.235,11.17C0.975,11.687 0.728,12.255 0.494,12.874C0.26,13.495 0.083,14.111 -0.038,14.722C-0.158,15.333 -0.146,15.817 0,16.176M-5.595,-1.469C-5.273,-1.191 -5.066,-1.011 -4.974,-0.925C-4.882,-0.841 -4.76,-0.684 -4.61,-0.455C-4.902,-0.532 -5.155,-0.595 -5.371,-0.645C-5.586,-0.694 -5.794,-0.73 -5.997,-0.753C-6.199,-0.776 -6.414,-0.777 -6.64,-0.758C-6.864,-0.738 -7.121,-0.694 -7.408,-0.624C-8.15,-0.384 -8.8,-0.05 -9.356,0.38C-9.913,0.81 -10.335,1.279 -10.621,1.784C-10.908,2.292 -11.035,2.809 -11.002,3.338C-10.969,3.866 -10.742,4.352 -10.322,4.797C-9.86,5.285 -9.303,5.703 -8.65,6.05C-7.999,6.397 -7.296,6.704 -6.543,6.971C-5.789,7.238 -5.015,7.459 -4.219,7.632C-3.424,7.805 -2.667,7.966 -1.948,8.11C-1.231,8.256 -0.57,8.38 0.032,8.484C0.635,8.587 1.111,8.696 1.463,8.808C1.876,8.276 2.273,7.801 2.657,7.389C3.041,6.976 3.441,6.554 3.859,6.124L4.018,6.051C4.096,6.036 4.129,6.085 4.117,6.197C4.025,6.411 3.905,6.647 3.76,6.907C3.614,7.167 3.467,7.433 3.316,7.706C3.166,7.978 3.018,8.244 2.873,8.504C2.727,8.763 2.596,8.996 2.478,9.2C3.222,9.472 3.77,9.777 4.119,10.115C4.469,10.453 4.665,10.852 4.708,11.312C4.751,11.772 4.65,12.309 4.403,12.925C4.157,13.541 3.794,14.249 3.313,15.049C3.004,15.576 2.641,16.076 2.221,16.549C1.802,17.022 1.378,17.384 0.952,17.636C0.525,17.888 0.127,17.972 -0.242,17.888C-0.612,17.804 -0.888,17.453 -1.069,16.834C-1.229,15.757 -1.121,14.64 -0.743,13.483C-0.364,12.325 0.123,11.107 0.721,9.825C0.697,9.773 0.456,9.704 0.001,9.618C-0.455,9.531 -1.041,9.421 -1.754,9.283C-2.469,9.147 -3.264,8.974 -4.141,8.763C-5.017,8.553 -5.879,8.304 -6.728,8.016C-7.576,7.73 -8.37,7.385 -9.111,6.984C-9.853,6.583 -10.441,6.121 -10.877,5.598C-11.438,4.944 -11.792,4.308 -11.939,3.695C-12.087,3.08 -12.121,2.527 -12.042,2.03C-11.964,1.536 -11.82,1.112 -11.611,0.759C-11.402,0.405 -11.219,0.15 -11.058,-0.011C-10.712,-0.321 -10.354,-0.616 -9.982,-0.896C-9.611,-1.175 -9.207,-1.396 -8.771,-1.556C-8.334,-1.717 -7.854,-1.796 -7.331,-1.795C-6.807,-1.793 -6.229,-1.685 -5.595,-1.469" style="fill:white;fill-rule:nonzero;"/>
    </g>
    <g transform="matrix(4.16667,0,0,4.16667,284.938,298.748)">
        <path d="M0,-2.142C0.535,-2.78 1.058,-3.412 1.565,-4.037C2.074,-4.661 2.602,-5.313 3.15,-5.994C3.298,-6.119 3.459,-6.139 3.631,-6.053C3.804,-5.968 3.83,-5.834 3.71,-5.655C3.27,-5.086 2.776,-4.421 2.229,-3.659C1.682,-2.897 1.196,-2.143 0.773,-1.397C1.231,-1.009 1.687,-0.596 2.139,-0.16C2.591,0.275 3.046,0.694 3.505,1.096C3.964,1.498 4.429,1.866 4.899,2.199C5.37,2.532 5.847,2.796 6.329,2.993C6.753,3.026 7.08,2.966 7.31,2.811C7.539,2.657 7.707,2.462 7.812,2.228C7.917,1.993 7.975,1.739 7.982,1.466C7.991,1.192 7.986,0.94 7.969,0.708C7.966,0.516 8.043,0.436 8.2,0.467C8.358,0.499 8.447,0.699 8.468,1.067C8.484,1.245 8.488,1.45 8.479,1.683C8.47,1.915 8.419,2.155 8.328,2.403C8.236,2.651 8.098,2.892 7.91,3.128C7.724,3.365 7.475,3.573 7.163,3.757C6.771,3.997 6.285,3.985 5.706,3.722C5.128,3.46 4.512,3.088 3.86,2.607C3.21,2.127 2.557,1.599 1.904,1.023C1.251,0.447 0.653,-0.061 0.112,-0.503C-0.422,0.164 -0.807,0.659 -1.04,0.984C-1.272,1.31 -1.443,1.542 -1.55,1.681C-1.657,1.819 -1.744,1.896 -1.812,1.911C-1.88,1.926 -2.017,1.942 -2.222,1.96C-2.277,1.879 -2.341,1.811 -2.41,1.758C-2.479,1.705 -2.531,1.654 -2.566,1.607C-2.602,1.56 -2.616,1.492 -2.611,1.403C-2.606,1.314 -2.551,1.187 -2.444,1.02C-2.298,0.758 -2.037,0.425 -1.663,0.022C-1.287,-0.382 -0.945,-0.798 -0.639,-1.227C-1.098,-1.643 -1.46,-1.965 -1.723,-2.192C-1.987,-2.42 -2.22,-2.617 -2.421,-2.785C-2.622,-2.952 -2.816,-3.119 -3.005,-3.287C-3.192,-3.454 -3.432,-3.679 -3.724,-3.961C-3.794,-4.027 -3.81,-4.116 -3.77,-4.226C-3.731,-4.336 -3.668,-4.443 -3.581,-4.548C-3.494,-4.652 -3.393,-4.728 -3.277,-4.779C-3.163,-4.829 -3.057,-4.833 -2.961,-4.795C-2.795,-4.716 -2.583,-4.565 -2.326,-4.345C-2.069,-4.124 -1.803,-3.886 -1.523,-3.631C-1.246,-3.377 -0.968,-3.115 -0.689,-2.847C-0.411,-2.579 -0.181,-2.343 0,-2.142" style="fill:white;fill-rule:nonzero;"/>
    </g>
    <g transform="matrix(4.16667,0,0,4.16667,320.746,262.182)">
        <path d="M0,4.67C0.003,4.386 -0.02,4.036 -0.067,3.623C-0.116,3.211 -0.208,2.796 -0.343,2.379C-0.477,1.962 -0.66,1.564 -0.892,1.182C-1.122,0.801 -1.419,0.499 -1.783,0.276C-2.009,0.086 -2.191,-0.003 -2.33,0.008C-2.4,0.014 -2.444,0.034 -2.463,0.068C-2.757,0.281 -2.872,0.592 -2.812,1.001C-2.75,1.411 -2.581,1.846 -2.307,2.306C-2.03,2.768 -1.687,3.216 -1.276,3.652C-0.865,4.089 -0.439,4.428 0,4.67M-3.879,1.074C-3.867,1.015 -3.835,0.846 -3.78,0.566C-3.726,0.287 -3.631,0.085 -3.496,-0.038C-3.242,-0.538 -2.908,-0.845 -2.492,-0.959C-2.076,-1.072 -1.54,-0.804 -0.883,-0.154C-0.197,0.644 0.287,1.467 0.568,2.318C0.851,3.17 1.053,4.103 1.177,5.12C1.71,5.194 2.095,5.075 2.333,4.764C2.57,4.454 2.711,4.068 2.756,3.607C2.8,3.146 2.785,2.663 2.71,2.158C2.635,1.653 2.557,1.234 2.476,0.902C2.366,0.379 2.265,-0.047 2.17,-0.376C2.075,-0.703 1.939,-1.07 1.767,-1.476C1.761,-1.545 1.781,-1.572 1.828,-1.558C1.875,-1.542 1.936,-1.503 2.012,-1.44C2.086,-1.376 2.19,-1.286 2.325,-1.168C2.415,-1.051 2.493,-0.942 2.559,-0.84C2.624,-0.738 2.685,-0.609 2.743,-0.456C2.803,-0.302 2.866,-0.107 2.934,0.129C3.003,0.366 3.104,0.664 3.235,1.024C3.333,1.409 3.431,1.782 3.528,2.146C3.626,2.508 3.688,2.868 3.712,3.223C3.736,3.579 3.696,3.933 3.591,4.283C3.486,4.634 3.288,4.993 2.996,5.362C2.691,5.636 2.415,5.836 2.168,5.964C1.921,6.094 1.694,6.173 1.489,6.204C1.284,6.234 1.109,6.242 0.963,6.228C0.816,6.213 0.696,6.191 0.602,6.162C0.217,6.06 -0.259,5.842 -0.825,5.506C-1.392,5.173 -2.043,4.593 -2.779,3.767C-3.133,3.286 -3.404,2.826 -3.595,2.391C-3.784,1.955 -3.879,1.517 -3.879,1.074" style="fill:white;fill-rule:nonzero;"/>
    </g>
    <g transform="matrix(4.16667,0,0,4.16667,295.864,248.162)">
        <path d="M0,-11.163C-0.057,-10.957 -0.096,-10.813 -0.119,-10.73C-0.142,-10.645 -0.162,-10.591 -0.18,-10.565C-0.195,-10.54 -0.214,-10.53 -0.232,-10.535C-0.251,-10.54 -0.282,-10.538 -0.324,-10.53C-0.335,-10.493 -0.437,-10.465 -0.632,-10.449C-0.827,-10.432 -1.042,-10.396 -1.278,-10.34C-1.514,-10.285 -1.744,-10.192 -1.971,-10.064C-2.195,-9.935 -2.342,-9.749 -2.408,-9.507C-2.682,-9.021 -2.729,-8.573 -2.551,-8.163C-2.372,-7.754 -2.056,-7.371 -1.602,-7.017C-1.147,-6.661 -0.6,-6.34 0.044,-6.054C0.687,-5.767 1.343,-5.508 2.01,-5.275C2.678,-5.041 3.324,-4.84 3.949,-4.669C4.573,-4.497 5.078,-4.349 5.465,-4.224C5.544,-4.583 5.609,-4.88 5.664,-5.116C5.719,-5.351 5.769,-5.568 5.812,-5.767C5.856,-5.965 5.898,-6.15 5.935,-6.32C5.971,-6.49 6.017,-6.678 6.073,-6.884C6.117,-6.971 6.199,-7.049 6.317,-7.117C6.437,-7.184 6.561,-7.235 6.69,-7.27C6.82,-7.305 6.936,-7.324 7.037,-7.326C7.138,-7.329 7.183,-7.31 7.173,-7.274C7.137,-6.923 7.093,-6.613 7.04,-6.348C6.986,-6.082 6.937,-5.824 6.889,-5.577C6.841,-5.33 6.787,-5.079 6.728,-4.825C6.668,-4.57 6.604,-4.282 6.536,-3.96C7.492,-3.718 8.355,-3.522 9.125,-3.371C9.896,-3.22 10.628,-3.074 11.321,-2.935C12.015,-2.794 12.694,-2.66 13.358,-2.527C14.024,-2.395 14.724,-2.238 15.455,-2.058C15.595,-1.979 15.638,-1.862 15.585,-1.706C15.532,-1.551 15.474,-1.391 15.408,-1.228C15.394,-1.173 15.374,-1.138 15.351,-1.125C15.326,-1.111 15.239,-1.12 15.087,-1.152C14.936,-1.184 14.681,-1.243 14.324,-1.331C13.967,-1.418 13.458,-1.538 12.799,-1.688C12.139,-1.839 11.288,-2.027 10.247,-2.252C9.206,-2.476 7.915,-2.741 6.374,-3.042C6.295,-2.603 6.228,-2.25 6.175,-1.984C6.122,-1.718 6.073,-1.486 6.029,-1.288C5.985,-1.089 5.937,-0.897 5.886,-0.71C5.835,-0.524 5.78,-0.288 5.723,-0.003C5.687,0.127 5.637,0.184 5.57,0.165C5.506,0.147 5.429,0.101 5.339,0.026C5.249,-0.048 5.166,-0.131 5.091,-0.222C5.016,-0.312 4.962,-0.373 4.93,-0.402C4.923,-0.523 4.965,-0.862 5.058,-1.419C5.15,-1.975 5.248,-2.588 5.353,-3.262C3.537,-3.66 2.044,-4.083 0.875,-4.534C-0.294,-4.984 -1.221,-5.429 -1.902,-5.866C-2.585,-6.303 -3.066,-6.721 -3.348,-7.119C-3.631,-7.517 -3.791,-7.861 -3.832,-8.154C-3.914,-8.877 -3.769,-9.464 -3.395,-9.913C-3.021,-10.361 -2.592,-10.701 -2.109,-10.929C-1.626,-11.157 -1.164,-11.286 -0.726,-11.316C-0.286,-11.347 -0.044,-11.295 0,-11.163" style="fill:white;fill-rule:nonzero;"/>
    </g>
    <g transform="matrix(4.16667,0,0,4.16667,319.989,211.81)">
        <path d="M0,-0.646C0.933,-0.654 1.955,-0.624 3.065,-0.557C4.175,-0.489 5.341,-0.446 6.563,-0.427C7.187,-0.444 7.674,-0.476 8.028,-0.52C8.382,-0.563 8.714,-0.589 9.026,-0.599C9.055,-0.285 9.026,-0.045 8.942,0.121C8.859,0.288 8.762,0.444 8.65,0.589C8.339,0.598 7.824,0.592 7.108,0.572C6.392,0.553 5.612,0.527 4.771,0.495C3.929,0.463 3.111,0.434 2.317,0.406C1.523,0.379 0.895,0.362 0.429,0.356C0.397,0.276 0.346,0.208 0.272,0.152C0.201,0.097 0.139,0.038 0.086,-0.026C0.034,-0.089 -0.006,-0.17 -0.035,-0.271C-0.065,-0.37 -0.053,-0.495 0,-0.646M-3.761,-0.918C-3.781,-1.113 -3.654,-1.218 -3.382,-1.231C-3.108,-1.244 -2.91,-1.186 -2.786,-1.058C-2.633,-0.829 -2.497,-0.681 -2.378,-0.611C-2.258,-0.541 -2.188,-0.398 -2.171,-0.183C-2.2,-0.069 -2.216,0.031 -2.214,0.118C-2.213,0.206 -2.379,0.263 -2.711,0.29C-2.916,0.192 -3.115,0.052 -3.312,-0.132C-3.508,-0.315 -3.657,-0.578 -3.761,-0.918" style="fill:white;fill-rule:nonzero;"/>
    </g>
    <g transform="matrix(4.16667,0,0,4.16667,37.5731,128.033)">
        <path d="M0,3.901C-0.262,3.806 -2.303,2.984 -2.548,2.882L-8.906,0.576C-9.067,0.464 -9.02,0.333 -8.972,0.203C-8.895,-0.012 -8.712,-0.107 -8.493,-0.081L-5.356,1.057L0.625,3.401C0.718,3.516 0.701,3.711 0.658,3.83C0.593,4.008 0.257,4.007 0.126,3.96C0.103,3.951 0,3.901 0,3.901" style="fill:white;fill-rule:nonzero;"/>
    </g>
    <g transform="matrix(4.16667,0,0,4.16667,43.5443,110.042)">
        <path d="M0,4.712C-0.25,4.591 -2.196,3.565 -2.43,3.438L-8.516,0.491C-8.664,0.363 -8.603,0.237 -8.542,0.112C-8.443,-0.092 -8.252,-0.168 -8.037,-0.12L-5.034,1.334L0.673,4.279C0.753,4.403 0.716,4.596 0.661,4.71C0.579,4.88 0.245,4.845 0.119,4.784C0.097,4.773 0,4.712 0,4.712" style="fill:white;fill-rule:nonzero;"/>
    </g>
    <g transform="matrix(4.16667,0,0,4.16667,58.4818,70.57)">
        <path d="M0,4.926C0.447,4.645 0.968,5.739 1.661,5.504L1.71,5.447C2.176,4.914 1.577,4.121 1.187,3.78C0.663,3.322 0.068,2.869 -0.618,2.655C-2.038,2.204 -3.734,2.417 -4.915,1.384C-5.448,0.919 -6.05,-0.178 -5.476,-0.836C-5.11,-1.254 -4.169,-1.658 -3.674,-1.225C-3.494,-1.067 -3.438,-0.919 -3.605,-0.728C-3.93,-0.357 -4.401,-0.97 -4.858,-0.447C-5.283,0.038 -4.641,0.668 -4.307,0.959C-3.346,1.8 -1.963,1.581 -0.789,1.852C0.285,2.102 1.526,2.834 2.05,3.695C2.412,4.28 2.713,5.3 2.206,5.88C1.59,6.584 0.522,6.037 -0.049,5.538C-0.21,5.397 -0.181,5.036 0,4.926" style="fill:white;fill-rule:nonzero;"/>
    </g>
    <g transform="matrix(4.16667,0,0,4.16667,55.7127,73.3683)">
        <path d="M0,-4.853C-0.147,-5.026 -0.121,-5.33 0.052,-5.476L1.578,-6.765C1.635,-6.814 1.951,-6.832 2.001,-6.792C2.027,-6.781 2.035,-6.771 2.052,-6.752C2.215,-6.559 2.028,-6.252 1.873,-6.121L0.715,-5.142L3.471,-1.978L4.383,-3.014L4.431,-3.055C4.885,-3.438 5.086,-2.847 4.75,-2.463L3.906,-1.502L6.006,1.042C6.102,0.978 6.43,0.701 6.517,0.627C7.163,0.081 7.449,-0.541 7.853,-0.122C8.149,0.19 5.955,1.979 5.8,1.795L0,-4.853Z" style="fill:white;fill-rule:nonzero;"/>
    </g>
    <g transform="matrix(4.16667,0,0,4.16667,82.4402,53.9117)">
        <path d="M0,-5.222C-0.643,-4.771 -0.952,-4.597 -1.085,-4.768C-1.287,-5.147 -1.366,-5.277 -0.205,-5.897L0.702,-6.45C0.946,-6.584 1.365,-6.796 1.556,-6.483C1.615,-6.386 1.562,-6.205 1.465,-6.146L0.559,-5.593L4.945,1.134C5.004,1.231 4.822,1.417 4.757,1.456C4.692,1.496 4.443,1.574 4.384,1.477L0,-5.222Z" style="fill:white;fill-rule:nonzero;"/>
    </g>
    <g transform="matrix(4.16667,0,0,4.16667,109.058,43.6283)">
        <path d="M0,-6.067C-0.705,-5.721 -1.037,-5.598 -1.143,-5.787C-1.283,-6.194 -1.341,-6.334 -0.097,-6.765L0.886,-7.171C1.148,-7.265 1.595,-7.408 1.734,-7.069C1.777,-6.963 1.697,-6.794 1.592,-6.75L0.61,-6.346L3.893,0.985C3.936,1.091 3.726,1.245 3.656,1.274C3.586,1.303 3.328,1.341 3.285,1.236L0,-6.067Z" style="fill:white;fill-rule:nonzero;"/>
    </g>
    <g transform="matrix(4.16667,0,0,4.16667,132.892,43.1362)">
        <path d="M0,-7.756C-0.053,-7.978 0.105,-8.237 0.326,-8.29L2.268,-8.758C2.341,-8.777 2.631,-8.652 2.658,-8.593C2.677,-8.571 2.68,-8.559 2.686,-8.534C2.745,-8.288 2.44,-8.098 2.243,-8.05L0.769,-7.695L1.814,-3.631L3.094,-4.147L3.155,-4.162C3.732,-4.301 3.648,-3.682 3.174,-3.49L1.99,-3.009L2.726,0.206C2.84,0.192 3.257,0.091 3.368,0.065C4.191,-0.134 4.725,-0.562 4.899,-0.006C5.024,0.407 2.26,1.021 2.203,0.788L0,-7.756Z" style="fill:white;fill-rule:nonzero;"/>
    </g>
    <g transform="matrix(4.16667,0,0,4.16667,179.348,32.4483)">
        <path d="M0,-5.665L-1.163,-2.228C-1.174,-1.975 -1.765,-1.914 -1.873,-2.021C-1.886,-2.034 -1.955,-2.131 -1.97,-2.167C-2.361,-3.208 -2.713,-4.238 -3.191,-5.248C-3.265,-2.864 -2.856,-0.457 -3.019,1.92C-3.152,2.017 -3.253,2.023 -3.404,2.032C-3.67,2.048 -3.661,1.984 -3.675,1.744C-3.699,1.34 -3.601,1.069 -4.099,-6.891C-4.121,-7.269 -3.558,-7.594 -3.382,-7.186L-1.593,-3.064C-1.251,-3.502 -0.364,-7.112 -0.114,-7.595C-0.002,-7.855 0.277,-7.834 0.605,-7.638C0.618,-7.639 0.928,-3.479 1.046,-1.701C1.125,-0.579 1.258,0.591 1.325,1.727C1.338,1.954 1.199,2.164 0.959,2.179C0.757,2.19 0.704,2.143 0.617,1.945C0.503,-0.605 0.277,-3.137 0,-5.665" style="fill:white;fill-rule:nonzero;"/>
    </g>
    <g transform="matrix(4.16667,0,0,4.16667,202.952,29.755)">
        <path d="M0,-4.19C0.639,-4.108 1.159,-4.781 1.247,-5.47C1.338,-6.186 0.78,-6.512 0.075,-6.283L0,-4.19ZM-0.273,2.34C1.057,2.51 1.669,1.199 1.823,-0.005C2.001,-1.398 1.577,-3.172 -0.065,-3.382C-0.308,-1.488 -0.408,0.398 -0.497,2.299C-0.424,2.321 -0.349,2.33 -0.273,2.34M1.93,-5.435C1.847,-4.782 1.521,-4.225 1.033,-3.803C2.35,-2.73 2.777,-1.592 2.563,0.089C2.334,1.882 1.148,3.286 -0.821,3.035C-0.909,3.024 -1.158,2.979 -1.235,2.79C-1.128,0.842 -0.882,-1.077 -0.781,-3.371L-0.65,-6.389L-0.617,-6.652C0.317,-7.476 2.127,-6.977 1.93,-5.435" style="fill:white;fill-rule:nonzero;"/>
    </g>
    <g transform="matrix(4.16667,0,0,4.16667,233.238,30.5883)">
        <path d="M0,-1.495C0.86,-1.237 1.663,-2.725 1.831,-3.282C2.002,-3.851 1.953,-4.658 1.264,-4.865C1.082,-4.919 0.929,-4.847 0.866,-4.641C0.562,-3.584 0.199,-2.729 -0.124,-1.651C-0.153,-1.555 -0.072,-1.517 0,-1.495M-2.352,2.907C-1.533,0.182 -0.61,-2.537 0.28,-5.239C0.472,-5.789 0.678,-5.727 1.162,-5.581L1.283,-5.545C2.396,-5.211 2.894,-4.269 2.573,-3.204L2.533,-3.071C2.268,-2.187 1.729,-1.227 0.766,-0.922C0.808,-0.844 0.989,-0.433 1.011,-0.333C1.342,0.545 0.688,2.236 0.498,3.089C0.477,3.162 0.382,3.741 0.359,3.814L0.331,3.91C0.269,4.116 0.067,4.082 -0.09,4.035L-0.103,4.031C-0.235,3.991 -0.393,3.944 -0.39,3.76C-0.282,3.357 0.165,1.472 0.265,1.053C0.396,0.445 0.518,-0.403 -0.221,-0.624L-0.415,-0.683C-0.472,-0.581 -0.665,-0.111 -0.699,-0.002C-0.743,0.103 -1.611,2.773 -1.933,3.798C-2.002,4.028 -2.042,4.294 -2.345,4.202C-2.478,4.163 -2.607,4.07 -2.656,3.924L-2.352,2.907Z" style="fill:white;fill-rule:nonzero;"/>
    </g>
    <g transform="matrix(4.16667,0,0,4.16667,260.488,58.2412)">
        <path d="M0,-9.203C0.098,-9.408 0.384,-9.51 0.589,-9.412L2.394,-8.554C2.462,-8.521 2.608,-8.241 2.593,-8.179C2.594,-8.151 2.588,-8.139 2.577,-8.116C2.469,-7.888 2.111,-7.932 1.929,-8.019L0.558,-8.671L-1.188,-4.852L0.132,-4.448L0.189,-4.421C0.726,-4.165 0.271,-3.738 -0.219,-3.887L-1.443,-4.259L-2.896,-1.295C-2.797,-1.235 -2.409,-1.05 -2.306,-1.001C-1.542,-0.637 -0.856,-0.634 -1.072,-0.092C-1.234,0.307 -3.771,-0.955 -3.667,-1.172L0,-9.203Z" style="fill:white;fill-rule:nonzero;"/>
    </g>
    <g transform="matrix(4.16667,0,0,4.16667,314.064,79.4346)">
        <path d="M0,-5.681L-0.036,-5.715C-0.933,-6.347 -1.15,-6.221 -1.641,-6.377C-1.859,-6.457 -1.884,-6.617 -1.705,-6.813C-1.329,-7.223 -0.022,-6.61 0.356,-6.332C0.995,-5.85 1.041,-5.208 0.513,-4.63C-1.058,-2.915 -3.673,-2.19 -5.872,-0.76L-6.176,-0.558C-6.194,-0.557 -6.21,-0.521 -6.219,-0.512L-4.829,0.572L-4.792,0.606C-4.437,0.93 -4.724,1.542 -5.167,1.222L-7.302,-0.303C-7.524,-0.507 -7.483,-0.572 -7.32,-0.749C-6.95,-1.06 0.988,-4.776 0,-5.681" style="fill:white;fill-rule:nonzero;"/>
    </g>
    <g transform="matrix(4.16667,0,0,4.16667,307.892,76.4925)">
        <path d="M0,5.509C0.366,5.978 1.77,5.268 2.107,5.084L2.672,4.739C3.412,4.29 3.594,4.132 4.241,3.626C4.859,3.143 5.268,2.761 5.957,2.062C6.418,1.606 7.262,0.61 6.709,-0.097C6.499,-0.367 5.195,0.122 4.939,0.225C4.382,0.436 3.741,0.807 3.231,1.141C3.222,1.149 2.975,1.326 2.885,1.396C2.308,1.847 -0.747,4.552 0,5.509M4.119,-0.209L4.234,-0.267C5.07,-0.696 6.506,-1.303 7.136,-0.495C8.124,0.77 7.205,1.874 6.224,2.816C5.856,3.167 4.83,4.113 4.761,4.167C4.631,4.268 3.085,5.33 2.566,5.672C1.694,6.24 0.264,6.812 -0.499,5.835C-1.036,5.148 -0.603,4.183 -0.139,3.564C0.749,2.358 1.517,1.614 2.682,0.704C3.33,0.198 3.436,0.148 4.119,-0.209" style="fill:white;fill-rule:nonzero;"/>
    </g>
    <g transform="matrix(4.16667,0,0,4.16667,352.858,120.532)">
        <path d="M0,-3.375L-0.024,-3.419C-0.663,-4.31 -0.91,-4.263 -1.321,-4.572C-1.501,-4.719 -1.473,-4.878 -1.238,-5.004C-0.749,-5.268 0.283,-4.26 0.55,-3.873C0.994,-3.208 0.827,-2.587 0.138,-2.215C-1.908,-1.11 -4.616,-1.286 -7.164,-0.658L-7.518,-0.567C-7.533,-0.572 -7.562,-0.543 -7.572,-0.538L-6.616,0.942L-6.592,0.986C-6.364,1.409 -6.835,1.893 -7.148,1.445L-8.663,-0.695C-8.807,-0.962 -8.746,-1.01 -8.535,-1.124C-8.082,-1.296 0.636,-2.196 0,-3.375" style="fill:white;fill-rule:nonzero;"/>
    </g>
    <g transform="matrix(4.16667,0,0,4.16667,327.993,128.015)">
        <path d="M0,2.538C0.26,2.439 2.343,1.726 2.594,1.643L8.912,-0.766C9.106,-0.787 9.156,-0.657 9.206,-0.527C9.288,-0.315 9.211,-0.123 9.029,0L5.911,1.189L-0.146,3.325C-0.291,3.299 -0.405,3.14 -0.451,3.022C-0.519,2.845 -0.264,2.626 -0.134,2.576C-0.11,2.567 0,2.538 0,2.538" style="fill:white;fill-rule:nonzero;"/>
    </g>
    <path d="M194.848,181.015L194.678,180.724" style="fill:none;fill-rule:nonzero;stroke:rgb(35,31,32);stroke-width:3.45px;"/>
    <path d="M159.934,256.051L153.901,252.988C151.926,251.98 151.126,249.542 152.13,247.563L176.776,199.051C177.78,197.076 180.222,196.28 182.197,197.284L188.234,200.351C190.209,201.355 191.005,203.792 190.001,205.772L165.355,254.284C164.355,256.259 161.913,257.055 159.934,256.051ZM159.843,257.125C158.893,258.992 156.618,259.733 154.751,258.787C152.884,257.837 152.138,255.558 153.088,253.692M183.936,194.105L183.947,194.123C183.726,194.559 183.496,194.966 183.259,195.342L183.936,194.105ZM236.084,100.969C236.084,100.969 240.92,112.382 223.428,138.14C211.148,156.22 201.656,169.841 194.848,181.015M192.911,177.696L189.275,171.464C191.911,153.172 194.044,129.652 200.405,114.65C210.459,90.946 235.455,99.921 235.455,99.921M185.922,197.509L186.003,197.648L185.342,198.721C185.342,198.721 185.431,198.479 185.693,197.954C185.754,197.839 185.823,197.704 185.901,197.549L185.909,197.533L185.922,197.509ZM185.839,197.366L185.921,197.507L185.901,197.549L185.807,197.728C185.777,197.787 185.747,197.846 185.717,197.905L185.693,197.954C185.477,198.361 185.363,198.531 185.363,198.531L185.839,197.366ZM242.263,106.421C242.263,106.421 252.975,122.979 221.092,155.579C209.378,167.558 201.446,176.558 196.096,183.154L195.535,182.192M193.471,178.656L192.502,176.995C194.447,169.105 196.677,158.508 199.043,144.377C206.563,99.402 226.255,98.289 226.255,98.289M193.948,179.473C201.661,160.034 209.561,135.098 214.974,120.806C220.874,105.231 231.112,101.119 234.403,100.173C235.07,99.985 235.749,100.115 236.291,100.535C240.183,103.56 255.874,117.44 244.233,136.91C234.29,153.538 211.1,172.437 197.998,186.414L193.948,179.473Z" style="fill:none;fill-rule:nonzero;stroke:white;stroke-width:3.45px;"/>
    <path d="M219.223,214.032L216.49,215.599L214.34,212.082C213.756,210.907 212.581,210.128 211.606,209.737L146.74,98.566C144.59,94.853 139.706,93.487 135.798,95.637C132.086,97.782 130.719,102.67 132.869,106.578L197.731,217.749C197.536,218.92 197.731,220.287 198.519,221.457L218.444,255.649C219.615,257.799 221.956,258.774 224.306,258.578L225.086,259.949C226.648,262.682 229.969,263.466 232.706,261.903C235.444,260.341 236.223,257.016 234.656,254.282L233.877,252.72C235.248,250.962 235.444,248.224 234.269,246.27L222.544,226.149L225.281,224.587C226.456,223.999 226.648,222.632 226.065,221.457L222.152,214.816C221.765,213.645 220.398,213.449 219.223,214.032ZM230.752,256.237C230.948,256.82 230.948,257.407 230.361,257.603C229.773,257.799 229.19,257.799 228.994,257.212L228.406,256.237L230.165,255.257L230.752,256.237ZM230.361,248.42C230.752,249.007 230.556,249.982 229.773,250.374L224.111,253.695C223.523,254.087 222.544,253.891 222.152,253.112L220.398,250.178L228.406,245.491L230.361,248.42ZM218.248,246.27L216.49,243.341L224.502,238.653L226.261,241.582L218.248,246.27ZM220.786,232.007L222.544,234.941L214.536,239.628L212.777,236.699L220.786,232.007ZM210.436,214.424L218.444,228.103L210.436,232.791L202.423,219.116C202.031,218.528 202.227,217.553 203.011,217.162L208.673,213.841C209.261,213.449 210.236,213.645 210.436,214.424ZM221.177,221.653L220.398,222.045L218.836,219.503L219.615,219.116L221.177,221.653ZM136.971,104.234C135.996,102.671 136.579,100.521 138.142,99.546C139.708,98.567 141.854,99.155 142.833,100.717L206.525,209.738L206.329,209.738L200.667,213.059L200.471,213.059L136.971,104.234Z" style="fill:white;fill-rule:nonzero;"/>
</svg>
