<?xml version="1.0" encoding="UTF-8" standalone="no"?>
<!DOCTYPE svg PUBLIC "-//W3C//DTD SVG 1.1//EN" "http://www.w3.org/Graphics/SVG/1.1/DTD/svg11.dtd">
<svg width="100%" height="100%" viewBox="0 0 173 153" version="1.1" xmlns="http://www.w3.org/2000/svg" xmlns:xlink="http://www.w3.org/1999/xlink" xml:space="preserve" xmlns:serif="http://www.serif.com/" style="fill-rule:evenodd;clip-rule:evenodd;stroke-linejoin:round;stroke-miterlimit:2;">
    <g transform="matrix(4.16667,0,0,4.16667,52.0658,31.6066)">
        <path d="M0,-1.574C-0.042,-1.613 -0.083,-1.651 -0.123,-1.689C-0.505,-2.053 -0.615,-2.173 -0.615,-2.493C-0.615,-2.813 -0.505,-2.932 -0.123,-3.296C0.033,-3.445 0.209,-3.613 0.377,-3.814C0.594,-4.074 0.56,-4.461 0.3,-4.678C0.04,-4.896 -0.347,-4.861 -0.565,-4.601C-0.688,-4.452 -0.825,-4.322 -0.969,-4.184C-1.398,-3.775 -1.842,-3.353 -1.842,-2.493C-1.842,-1.633 -1.398,-1.21 -0.969,-0.801C-0.926,-0.759 -0.881,-0.717 -0.835,-0.675C-0.441,-0.309 -0.157,-0.045 -0.157,0.603C-0.157,1.318 -0.515,1.713 -0.931,2.169C-0.97,2.213 -1.009,2.256 -1.047,2.299C-1.273,2.551 -1.252,2.939 -1,3.165C-0.882,3.27 -0.736,3.322 -0.59,3.322C-0.422,3.322 -0.254,3.253 -0.133,3.117C-0.097,3.076 -0.06,3.036 -0.022,2.995C0.438,2.487 1.07,1.793 1.07,0.604C1.07,-0.579 0.451,-1.154 0,-1.574" style="fill:rgb(35,31,32);fill-rule:nonzero;"/>
    </g>
    <g transform="matrix(4.16667,0,0,4.16667,87.6837,20.0849)">
        <path d="M0,-1.573C-0.042,-1.612 -0.083,-1.65 -0.123,-1.688C-0.505,-2.052 -0.615,-2.172 -0.615,-2.492C-0.615,-2.812 -0.505,-2.931 -0.123,-3.296C0.033,-3.444 0.209,-3.612 0.377,-3.814C0.594,-4.074 0.56,-4.461 0.3,-4.678C0.04,-4.895 -0.347,-4.86 -0.564,-4.6C-0.688,-4.452 -0.825,-4.322 -0.97,-4.184C-1.398,-3.775 -1.842,-3.351 -1.842,-2.492C-1.842,-1.632 -1.398,-1.209 -0.97,-0.8C-0.926,-0.759 -0.881,-0.717 -0.835,-0.675C-0.441,-0.308 -0.157,-0.044 -0.157,0.604C-0.157,1.319 -0.515,1.713 -0.931,2.17C-0.97,2.213 -1.009,2.256 -1.047,2.299C-1.273,2.552 -1.252,2.94 -1,3.166C-0.882,3.27 -0.736,3.322 -0.59,3.322C-0.422,3.322 -0.254,3.253 -0.133,3.118C-0.097,3.077 -0.06,3.036 -0.022,2.995C0.439,2.489 1.07,1.793 1.07,0.604C1.07,-0.578 0.451,-1.153 0,-1.573" style="fill:rgb(35,31,32);fill-rule:nonzero;"/>
    </g>
    <g transform="matrix(4.16667,0,0,4.16667,123.3,31.6066)">
        <path d="M0,-1.574C-0.041,-1.613 -0.082,-1.651 -0.122,-1.689C-0.505,-2.053 -0.615,-2.173 -0.615,-2.493C-0.615,-2.813 -0.505,-2.932 -0.122,-3.296C0.033,-3.445 0.21,-3.613 0.378,-3.814C0.595,-4.074 0.561,-4.461 0.3,-4.678C0.04,-4.896 -0.347,-4.861 -0.564,-4.601C-0.687,-4.452 -0.824,-4.322 -0.969,-4.184C-1.398,-3.775 -1.842,-3.353 -1.842,-2.493C-1.842,-1.633 -1.398,-1.21 -0.969,-0.801C-0.925,-0.759 -0.88,-0.717 -0.835,-0.675C-0.441,-0.309 -0.156,-0.045 -0.156,0.603C-0.156,1.318 -0.515,1.713 -0.93,2.169C-0.97,2.213 -1.009,2.256 -1.047,2.299C-1.273,2.551 -1.252,2.939 -0.999,3.165C-0.882,3.27 -0.735,3.322 -0.59,3.322C-0.422,3.322 -0.254,3.253 -0.133,3.117C-0.097,3.076 -0.06,3.036 -0.022,2.995C0.439,2.487 1.071,1.793 1.071,0.604C1.071,-0.579 0.452,-1.154 0,-1.574" style="fill:rgb(35,31,32);fill-rule:nonzero;"/>
    </g>
    <g transform="matrix(4.16667,0,0,4.16667,167.042,143.639)">
        <path d="M0,-0.866C-0.001,0.085 -0.775,0.86 -1.727,0.86L-37.137,0.86C-38.089,0.86 -38.863,0.085 -38.863,-0.866L-38.863,-1.724L0,-1.724L0,-0.866ZM0.613,-2.952L-39.477,-2.952C-39.815,-2.952 -40.09,-2.677 -40.09,-2.339L-40.09,-0.866C-40.09,0.762 -38.766,2.086 -37.137,2.086L-1.727,2.086C-0.099,2.086 1.227,0.762 1.227,-0.866L1.227,-2.339C1.227,-2.677 0.951,-2.952 0.613,-2.952" style="fill:rgb(35,31,32);fill-rule:nonzero;"/>
    </g>
    <g transform="matrix(4.16667,0,0,4.16667,88.7233,111.279)">
        <path d="M0,-12.881C-0.025,-12.882 -0.05,-12.882 -0.075,-12.883C-0.148,-12.886 -0.221,-12.889 -0.293,-12.89C-0.404,-12.893 -0.514,-12.894 -0.623,-12.894L-0.647,-12.894C-0.757,-12.894 -0.867,-12.893 -0.978,-12.89C-1.05,-12.889 -1.123,-12.886 -1.196,-12.883C-1.221,-12.882 -1.246,-12.882 -1.271,-12.881L-3.187,-14.797C-3.196,-14.806 -3.199,-14.809 -3.193,-14.825C-3.186,-14.841 -3.182,-14.841 -3.168,-14.841L1.898,-14.841C1.911,-14.841 1.915,-14.841 1.922,-14.825C1.928,-14.809 1.925,-14.806 1.916,-14.797L0,-12.881ZM10.515,-8.399C8.046,-10.776 4.939,-12.277 1.595,-12.74L2.784,-13.929C3.143,-14.289 3.25,-14.825 3.056,-15.295C2.861,-15.765 2.406,-16.068 1.898,-16.068L-3.168,-16.068C-3.677,-16.068 -4.131,-15.765 -4.326,-15.295C-4.521,-14.825 -4.414,-14.289 -4.055,-13.929L-2.866,-12.74C-6.213,-12.276 -9.323,-10.774 -11.793,-8.392C-14.797,-5.496 -16.54,-1.61 -16.701,2.55C-16.714,2.889 -16.45,3.174 -16.112,3.187L-16.087,3.187C-15.759,3.187 -15.487,2.929 -15.475,2.598C-15.326,-1.244 -13.716,-4.833 -10.942,-7.509C-8.361,-9.997 -5.022,-11.447 -1.466,-11.644C-1.401,-11.647 -1.337,-11.65 -1.272,-11.653C-1.196,-11.656 -1.119,-11.659 -1.043,-11.661C-1.006,-11.662 -0.97,-11.663 -0.933,-11.664C-0.834,-11.666 -0.735,-11.667 -0.635,-11.667C-0.536,-11.667 -0.437,-11.666 -0.338,-11.664C-0.302,-11.663 -0.266,-11.662 -0.229,-11.661C-0.152,-11.659 -0.075,-11.656 0.001,-11.653C0.065,-11.65 0.13,-11.647 0.195,-11.644C3.748,-11.448 7.083,-9.999 9.665,-7.515C12.437,-4.844 14.049,-1.26 14.203,2.578C14.216,2.917 14.501,3.179 14.84,3.167C15.179,3.153 15.442,2.868 15.429,2.529C15.262,-1.626 13.517,-5.508 10.515,-8.399" style="fill:rgb(35,31,32);fill-rule:nonzero;"/>
    </g>
</svg>
