<?xml version="1.0" encoding="UTF-8" standalone="no"?>
<!DOCTYPE svg PUBLIC "-//W3C//DTD SVG 1.1//EN" "http://www.w3.org/Graphics/SVG/1.1/DTD/svg11.dtd">
<svg width="100%" height="100%" viewBox="0 0 161 182" version="1.1" xmlns="http://www.w3.org/2000/svg" xmlns:xlink="http://www.w3.org/1999/xlink" xml:space="preserve" xmlns:serif="http://www.serif.com/" style="fill-rule:evenodd;clip-rule:evenodd;stroke-linejoin:round;stroke-miterlimit:2;">
    <g transform="matrix(4.16667,0,0,4.16667,154.697,4.42417)">
        <path d="M0,41.248L-32.135,41.248C-32.239,41.248 -32.323,41.163 -32.323,41.06L-32.323,40.453C-32.323,40.35 -32.239,40.265 -32.135,40.265L-10.2,40.265C-9.849,40.265 -9.564,39.98 -9.564,39.63C-9.564,39.278 -9.849,38.994 -10.2,38.994L-29.957,38.994L-29.957,31.177C-29.957,30.791 -29.643,30.478 -29.258,30.478L-2.876,30.478C-2.491,30.478 -2.179,30.792 -2.179,31.177L-2.179,38.994L-7.241,38.994C-7.592,38.994 -7.876,39.278 -7.876,39.63C-7.876,39.98 -7.592,40.265 -7.241,40.265L0,40.265C0.104,40.265 0.188,40.35 0.188,40.453L0.188,41.06C0.188,41.163 0.104,41.248 0,41.248M-31.227,35.928L-31.346,35.931L-31.426,35.93C-31.522,35.93 -31.621,35.924 -31.72,35.914C-31.918,35.894 -32.116,35.856 -32.31,35.801C-33.084,35.58 -33.783,35.061 -34.226,34.374C-34.56,33.859 -35.301,30.845 -35.577,29.441C-35.927,27.658 -35.95,26.176 -35.645,24.909C-35.158,22.891 -33.708,20.958 -31.562,19.469C-30.051,18.42 -28.336,17.669 -27.012,17.132C-26.353,16.864 -25.641,16.635 -24.953,16.413C-24.088,16.134 -23.194,15.846 -22.354,15.47C-19.542,14.21 -17.031,12.444 -14.893,10.222C-13.177,8.438 -11.764,6.427 -10.678,4.225L-5.979,23.16C-10.905,19.603 -17.05,18.033 -23.114,18.832C-25.254,19.114 -27.845,19.975 -30.044,21.135C-32.306,22.329 -33.839,24.149 -34.249,26.133C-34.617,27.917 -33.871,32.922 -33.578,33.664C-33.086,34.913 -32.042,35.244 -31.227,35.358L-31.227,35.928ZM-9.986,0.639C-9.861,0.435 -9.664,0.293 -9.429,0.238L-9.398,0.231C-9.332,0.217 -9.266,0.209 -9.201,0.209C-8.802,0.209 -8.437,0.481 -8.337,0.882L-2.371,24.921C-2.313,25.153 -2.351,25.394 -2.476,25.598C-2.602,25.802 -2.799,25.944 -3.035,25.999L-3.064,26.006C-3.533,26.114 -4.009,25.822 -4.124,25.355L-4.301,24.644L-9.89,2.126L-9.891,2.126L-10.091,1.316C-10.148,1.084 -10.111,0.844 -9.986,0.639M0,38.994L-0.907,38.994L-0.907,31.176C-0.907,30.091 -1.79,29.208 -2.876,29.208L-4.271,29.208C-4.305,27.857 -5.413,26.769 -6.771,26.769L-15.624,26.769L-15.624,25.743C-15.624,25.393 -15.908,25.108 -16.259,25.108C-16.609,25.108 -16.894,25.393 -16.894,25.743L-16.894,26.769L-20.586,26.769C-20.937,26.769 -21.222,27.053 -21.222,27.404C-21.222,27.755 -20.937,28.039 -20.586,28.039L-6.771,28.039C-6.113,28.039 -5.574,28.558 -5.541,29.208L-26.594,29.208C-26.56,28.558 -26.021,28.039 -25.363,28.039L-23.487,28.039C-23.136,28.039 -22.852,27.755 -22.852,27.404C-22.852,27.053 -23.136,26.769 -23.487,26.769L-25.363,26.769C-26.721,26.769 -27.83,27.857 -27.864,29.208L-29.258,29.208C-30.344,29.208 -31.227,30.091 -31.227,31.176L-31.227,34.069C-31.828,33.958 -32.186,33.733 -32.396,33.198C-32.625,32.619 -33.316,27.897 -33.004,26.39C-32.672,24.78 -31.377,23.274 -29.452,22.258C-27.409,21.181 -24.917,20.351 -22.948,20.092C-16.686,19.268 -10.333,21.111 -5.484,25.153L-5.357,25.661C-5.115,26.638 -4.228,27.299 -3.26,27.299C-3.102,27.299 -2.94,27.281 -2.779,27.244L-2.746,27.236C-2.179,27.105 -1.697,26.759 -1.393,26.262C-1.089,25.766 -0.998,25.18 -1.138,24.615L-7.104,0.576C-7.387,-0.561 -8.544,-1.27 -9.682,-1.007L-9.717,-0.998C-10.284,-0.867 -10.765,-0.522 -11.068,-0.025C-11.374,0.472 -11.464,1.057 -11.323,1.623L-11.173,2.229C-12.26,4.881 -13.818,7.272 -15.808,9.341C-17.833,11.445 -20.21,13.117 -22.873,14.31C-23.649,14.658 -24.472,14.923 -25.342,15.204C-26.052,15.433 -26.787,15.669 -27.489,15.954C-28.875,16.517 -30.671,17.305 -32.286,18.425C-34.688,20.093 -36.32,22.289 -36.879,24.612C-37.228,26.06 -37.209,27.721 -36.823,29.685C-36.814,29.729 -35.911,34.111 -35.292,35.063C-34.685,36.005 -33.724,36.72 -32.658,37.021C-32.394,37.098 -32.12,37.15 -31.849,37.178C-31.71,37.192 -31.571,37.2 -31.433,37.2L-31.345,37.201L-31.327,37.201L-31.227,37.198L-31.227,38.994L-32.135,38.994C-32.939,38.994 -33.593,39.648 -33.593,40.453L-33.593,41.06C-33.593,41.863 -32.939,42.518 -32.135,42.518L0,42.518C0.805,42.518 1.459,41.863 1.459,41.06L1.459,40.453C1.459,39.649 0.805,38.994 0,38.994" style="fill:rgb(35,31,32);fill-rule:nonzero;"/>
    </g>
    <g transform="matrix(4.16667,0,0,4.16667,86.9706,142.075)">
        <path d="M0,3.874C-0.663,3.561 -2.55,2.539 -2.55,1.087C-2.55,0.456 -2.037,-0.058 -1.406,-0.058C-1.052,-0.058 -0.724,0.103 -0.504,0.383C-0.384,0.536 -0.2,0.626 -0.004,0.626C0.191,0.626 0.375,0.536 0.496,0.383C0.714,0.103 1.043,-0.058 1.398,-0.058C2.029,-0.058 2.542,0.456 2.542,1.087C2.542,2.425 0.881,3.468 0,3.874M1.398,-1.328C0.886,-1.328 0.4,-1.17 -0.004,-0.881C-0.408,-1.17 -0.895,-1.328 -1.406,-1.328C-2.738,-1.328 -3.821,-0.245 -3.821,1.087C-3.821,3.726 -0.382,5.102 -0.235,5.158C-0.161,5.187 -0.083,5.202 -0.004,5.202C0.074,5.202 0.153,5.187 0.227,5.158C0.374,5.102 3.813,3.726 3.813,1.087C3.813,-0.245 2.729,-1.328 1.398,-1.328" style="fill:rgb(35,31,32);fill-rule:nonzero;"/>
    </g>
</svg>
