<?xml version="1.0" encoding="UTF-8" standalone="no"?>
<!DOCTYPE svg PUBLIC "-//W3C//DTD SVG 1.1//EN" "http://www.w3.org/Graphics/SVG/1.1/DTD/svg11.dtd">
<svg width="100%" height="100%" viewBox="0 0 185 163" version="1.1" xmlns="http://www.w3.org/2000/svg" xmlns:xlink="http://www.w3.org/1999/xlink" xml:space="preserve" xmlns:serif="http://www.serif.com/" style="fill-rule:evenodd;clip-rule:evenodd;stroke-linejoin:round;stroke-miterlimit:2;">
    <g transform="matrix(4.16667,0,0,4.16667,171.921,41.8583)">
        <path d="M0,23.358C-2.094,26.422 -6.017,28.401 -9.993,28.401C-14.167,28.401 -17.363,26.768 -20.05,23.259C-21.875,20.878 -22.715,18.048 -22.417,15.292C-22.177,13.064 -21.621,11.223 -20.72,9.662C-20.368,9.058 -19.959,8.485 -19.5,7.957C-19.265,7.688 -19.001,7.451 -18.763,7.19C-18.603,7.017 -18.49,6.86 -18.314,6.734C-18.053,7.02 -17.805,7.318 -17.573,7.624C-18.936,8.932 -20.031,10.448 -20.653,12.252C-22.223,16.805 -20.786,21.858 -17.077,24.826C-15.236,26.299 -12.855,27.088 -10.302,27.088C-10.03,27.088 -9.757,27.08 -9.482,27.061C-6.74,26.882 -4.117,25.844 -2.098,24.139C-2.047,24.096 -1.997,24.053 -1.944,24.011C-1.607,23.731 -1.259,23.443 -1.023,23.044C0.626,20.278 1.423,17.764 1.347,15.566C1.128,9.313 -4.136,4.403 -10.389,4.622C-12.244,4.686 -14.044,5.251 -15.627,6.186C-15.525,6.314 -15.445,6.455 -15.374,6.601C-15.662,6.165 -15.968,5.743 -16.293,5.352C-15.685,4.984 -14.936,4.558 -14.147,4.222C-14.039,4.177 -13.848,4.129 -13.646,4.081C-13.007,3.927 -12.211,3.735 -12.129,3.133C-12.079,2.768 -12.257,2.472 -12.401,2.235C-12.452,2.15 -12.527,2.025 -12.536,1.971C-12.515,1.947 -12.413,1.862 -12.018,1.769C-11.616,1.673 -11.198,1.665 -10.756,1.657C-10.444,1.651 -10.122,1.644 -9.803,1.606C-9.126,1.521 -8.425,1.436 -7.773,1.598C-7.626,1.635 -7.598,1.673 -7.598,1.67C-7.597,1.673 -7.593,1.699 -7.618,1.774C-7.638,1.833 -7.723,1.963 -7.791,2.07C-8.012,2.408 -8.261,2.789 -8.092,3.122C-7.915,3.471 -7.385,3.62 -6.872,3.764C-6.69,3.815 -6.521,3.86 -6.43,3.902C-5.738,4.225 -5.065,4.539 -4.433,4.864C-3.081,5.562 -1.865,6.498 -0.818,7.651C1.304,9.984 2.414,12.854 2.39,15.947C2.37,18.536 1.544,21.099 0,23.358M-20.51,23.614C-20.367,23.8 -20.223,23.979 -20.076,24.155C-20.195,24.242 -20.313,24.325 -20.435,24.408C-23.763,26.664 -27.839,27.224 -31.336,25.905C-32.505,25.462 -33.432,24.738 -34.413,23.971C-34.668,23.771 -34.935,23.563 -35.205,23.361C-36.116,22.679 -36.884,21.762 -37.426,20.712C-39.316,17.05 -39.119,12.436 -36.914,8.669C-34.807,5.075 -31.35,2.933 -27.428,2.797C-27.296,2.792 -27.164,2.789 -27.032,2.789C-24.083,2.789 -21.239,3.94 -18.987,6.052C-18.895,6.138 -18.804,6.226 -18.715,6.316C-19.12,6.604 -19.505,7.102 -19.81,7.441C-21.748,9.598 -22.686,12.382 -22.993,15.23C-23.308,18.134 -22.426,21.112 -20.51,23.614M-15.165,14.346C-15.1,16.525 -15.603,18.646 -16.58,20.321C-17.071,21.163 -17.676,21.954 -18.37,22.673C-18.355,22.692 -18.342,22.711 -18.327,22.73C-20.596,19.9 -21.313,16.013 -20.084,12.449C-20.084,12.073 -19.712,11.506 -19.546,11.178C-19.34,10.768 -19.106,10.374 -18.85,9.995C-18.386,9.316 -17.848,8.645 -17.236,8.096C-15.964,9.961 -15.23,12.137 -15.165,14.346M-23.698,27.972C-24.74,28.214 -25.86,28.353 -27.027,28.388C-28.384,28.428 -29.777,28.316 -31.053,28.068C-34.919,27.314 -38.213,23.521 -39.638,20.316C-40.431,18.536 -40.774,16.605 -40.661,14.577C-40.553,12.646 -40.015,10.691 -39.105,8.924C-37.893,6.569 -36.178,4.614 -34.146,3.271C-32.006,1.854 -29.604,1.137 -27.007,1.137C-24.959,1.137 -22.09,1.545 -20.176,2.691C-19.244,3.25 -18.418,3.999 -17.663,4.723C-15.105,7.179 -13.387,11.213 -13.387,14.756C-13.387,17.02 -13.985,19.296 -15.116,21.336C-15.663,22.324 -16.317,23.23 -17.058,24.037C-16.94,24.133 -16.826,24.232 -16.711,24.333C-16.677,24.355 -16.645,24.381 -16.613,24.41C-15.85,23.574 -15.174,22.639 -14.609,21.618C-13.431,19.49 -12.808,17.119 -12.808,14.756C-12.808,12.063 -13.761,9.098 -15.313,6.694C-13.817,5.816 -12.119,5.285 -10.367,5.224C-10.24,5.219 -10.114,5.219 -9.989,5.219C-4.235,5.219 0.542,9.793 0.744,15.587C0.815,17.638 0.025,20.11 -1.54,22.737C-1.724,23.046 -2.031,23.299 -2.33,23.547C-2.382,23.59 -2.435,23.635 -2.487,23.678C-4.381,25.279 -6.945,26.291 -9.522,26.459C-12.233,26.637 -14.783,25.889 -16.701,24.355C-17.165,23.984 -17.589,23.579 -17.976,23.145C-17.229,22.38 -16.579,21.533 -16.051,20.63C-15.001,18.832 -14.483,16.653 -14.552,14.327C-14.648,11.087 -16.112,7.907 -18.567,5.605C-21.041,3.285 -24.195,2.07 -27.449,2.185C-29.575,2.259 -31.557,2.879 -33.34,4.03C-34.985,5.091 -36.404,6.588 -37.443,8.359C-39.753,12.305 -39.955,17.146 -37.97,20.992C-37.386,22.125 -36.557,23.113 -35.573,23.851C-35.307,24.051 -35.044,24.256 -34.79,24.456C-33.771,25.25 -32.809,26.004 -31.552,26.478C-30.233,26.976 -28.835,27.218 -27.426,27.218C-24.901,27.218 -22.333,26.435 -20.091,24.917C-19.951,24.821 -19.814,24.722 -19.678,24.624C-19.373,24.967 -19.061,25.29 -18.742,25.59C-20.212,26.733 -21.897,27.554 -23.698,27.972M-13.408,-1.868C-13.148,-1.83 -12.886,-1.811 -12.622,-1.811C-12.352,-1.811 -12.081,-1.83 -11.815,-1.871C-11.719,-0.871 -11.543,0.122 -11.292,1.092C-11.458,1.1 -11.626,1.113 -11.792,1.137L-13.408,-1.868ZM-11.763,-4.596C-11.699,-4.681 -11.634,-4.766 -11.564,-4.814C-11.717,-3.961 -11.817,-2.965 -11.864,-2.448C-12.364,-2.371 -12.881,-2.374 -13.379,-2.448L-11.763,-4.596ZM-8.963,-2.326C-8.98,-1.225 -9.039,-0.032 -9.52,0.988C-9.64,1.002 -9.759,1.015 -9.873,1.031C-10.141,1.063 -10.412,1.071 -10.697,1.076C-10.96,0.093 -11.141,-0.914 -11.238,-1.926C-10.469,-1.987 -9.706,-2.121 -8.963,-2.326M-10.956,-4.91L-10.063,-4.966L-9.277,-2.933C-9.269,-2.907 -9.258,-2.88 -9.244,-2.85C-9.91,-2.678 -10.591,-2.56 -11.276,-2.504C-11.224,-3.079 -11.116,-4.1 -10.956,-4.91M-9.223,-5.019C-9.082,-5.027 -8.936,-5.038 -8.829,-4.995C-8.707,-4.947 -8.596,-4.814 -8.496,-4.697L-7.1,-3.035C-7.549,-2.949 -8.006,-2.923 -8.462,-2.952C-8.504,-2.954 -8.63,-2.965 -8.665,-2.995C-8.667,-2.997 -8.67,-3 -8.673,-3.005L-8.676,-3.013L-8.678,-3.013C-8.699,-3.042 -8.721,-3.101 -8.736,-3.141L-9.456,-5.006L-9.223,-5.019ZM-8.267,0.93L-8.241,0.94C-8.45,0.924 -8.659,0.924 -8.866,0.935C-8.446,-0.131 -8.398,-1.298 -8.383,-2.369C-8.286,-2.363 -8.19,-2.36 -8.095,-2.36C-7.691,-2.36 -7.287,-2.403 -6.892,-2.483L-8.267,0.93ZM-0.389,7.259C-1.482,6.058 -2.755,5.077 -4.168,4.35C-4.81,4.02 -5.489,3.7 -6.186,3.378C-6.319,3.316 -6.503,3.263 -6.716,3.205C-6.944,3.141 -7.468,2.994 -7.567,2.872C-7.556,2.771 -7.389,2.512 -7.306,2.387C-7.201,2.224 -7.111,2.088 -7.067,1.958C-7.005,1.772 -7.001,1.611 -7.055,1.468C-7.176,1.148 -7.521,1.063 -7.634,1.036C-7.649,1.031 -7.664,1.028 -7.679,1.025L-6.315,-2.366C-6.273,-2.467 -6.205,-2.638 -6.251,-2.829C-6.286,-2.965 -6.367,-3.064 -6.422,-3.128L-8.052,-5.07C-8.189,-5.232 -8.358,-5.435 -8.617,-5.536C-8.842,-5.624 -9.074,-5.611 -9.259,-5.597L-11.214,-5.475C-11.399,-5.464 -11.631,-5.448 -11.843,-5.326C-12.018,-5.222 -12.134,-5.067 -12.226,-4.945L-13.896,-2.725C-13.987,-2.605 -14.126,-2.422 -14.129,-2.18C-14.132,-1.99 -14.049,-1.836 -13.987,-1.724L-12.381,1.265C-12.772,1.385 -12.984,1.534 -13.074,1.75C-13.195,2.041 -13.036,2.301 -12.896,2.533C-12.791,2.709 -12.681,2.89 -12.703,3.053C-12.731,3.263 -13.441,3.437 -13.782,3.519C-14.019,3.575 -14.222,3.626 -14.375,3.69C-15.233,4.054 -16.039,4.518 -16.678,4.907C-16.867,4.699 -17.062,4.497 -17.262,4.305C-18.041,3.556 -18.897,2.781 -19.879,2.195C-21.199,1.404 -23.766,0.557 -27.007,0.557C-29.719,0.557 -32.229,1.308 -34.466,2.789C-36.58,4.185 -38.363,6.218 -39.621,8.661C-40.568,10.499 -41.127,12.534 -41.239,14.545C-41.358,16.666 -40.997,18.685 -40.168,20.55C-39.346,22.399 -38.069,24.203 -36.571,25.63C-34.881,27.237 -33.011,28.276 -31.164,28.638C-30.021,28.859 -28.788,28.974 -27.565,28.974C-27.379,28.974 -27.194,28.971 -27.009,28.966C-25.804,28.931 -24.646,28.787 -23.566,28.537C-21.652,28.092 -19.863,27.213 -18.309,25.987C-15.978,28.018 -13.275,28.982 -9.993,28.982C-5.83,28.982 -1.721,26.901 0.479,23.686C2.087,21.331 2.949,18.656 2.969,15.952C2.994,12.71 1.833,9.705 -0.389,7.259" style="fill:rgb(35,31,32);fill-rule:nonzero;"/>
    </g>
    <g transform="matrix(4.16667,0,0,4.16667,114.158,3.41833)">
        <path d="M0,3.17C-0.153,3.17 -0.292,3.069 -0.335,2.914C-0.557,2.083 -0.952,1.284 -1.475,0.602C-1.591,0.45 -1.563,0.232 -1.411,0.117C-1.259,0 -1.042,0.029 -0.926,0.181C-0.348,0.935 0.088,1.819 0.334,2.736C0.383,2.92 0.274,3.109 0.089,3.159C0.06,3.168 0.029,3.17 0,3.17" style="fill:rgb(35,31,32);fill-rule:nonzero;"/>
    </g>
    <g transform="matrix(4.16667,0,0,4.16667,129.506,0)">
        <path d="M0,2.363C-0.19,2.363 -0.345,2.206 -0.345,2.016L-0.345,0.346C-0.345,0.155 -0.19,0 0,0C0.19,0 0.347,0.155 0.347,0.346L0.347,2.016C0.347,2.206 0.19,2.363 0,2.363" style="fill:rgb(35,31,32);fill-rule:nonzero;"/>
    </g>
    <g transform="matrix(4.16667,0,0,4.16667,145.127,1.67667)">
        <path d="M0,3.111C-0.067,3.111 -0.135,3.092 -0.193,3.053C-0.352,2.944 -0.394,2.73 -0.285,2.57L1.321,0.199C1.428,0.042 1.644,0 1.801,0.109C1.959,0.215 2,0.431 1.894,0.589L0.286,2.96C0.22,3.058 0.11,3.111 0,3.111" style="fill:rgb(35,31,32);fill-rule:nonzero;"/>
    </g>
</svg>
